{
  "asset": {
    "generator": "gltfeditor.com",
    "version": "2.0"
  },
  "buffers": [
    {
      "uri": "data:application/octet-stream;base64,",
      "byteLength": 221132
    }
  ],
  "bufferViews": [
    {
      "buffer": 0,
      "byteLength": 53448,
      "byteOffset": 0,
      "target": 34962,
      "byteStride": 12
    },
    {
      "buffer": 0,
      "byteLength": 53448,
      "byteOffset": 53448,
      "target": 34962,
      "byteStride": 12
    },
    {
      "buffer": 0,
      "byteLength": 35632,
      "byteOffset": 106896,
      "target": 34962,
      "byteStride": 8
    },
    {
      "buffer": 0,
      "byteLength": 35632,
      "byteOffset": 142528,
      "target": 34962,
      "byteStride": 8
    },
    {
      "buffer": 0,
      "byteLength": 42132,
      "byteOffset": 178160,
      "target": 34963
    }
  ],
  "accessors": [
    {
      "bufferView": 0,
      "byteOffset": 0,
      "componentType": 5126,
      "normalized": false,
      "count": 4454,
      "max": [
        4.025002956390381,
        9.500070571899414,
        4.025001525878906
      ],
      "min": [
        -4.025000095367432,
        0,
        -8.206886291503906
      ],
      "type": "VEC3"
    },
    {
      "bufferView": 1,
      "byteOffset": 0,
      "componentType": 5126,
      "normalized": false,
      "count": 4454,
      "max": [
        1,
        1.0000001192092896,
        1
      ],
      "min": [
        -1,
        -1,
        -1
      ],
      "type": "VEC3"
    },
    {
      "bufferView": 2,
      "byteOffset": 0,
      "componentType": 5126,
      "normalized": false,
      "count": 4454,
      "max": [
        0.992699146270752,
        0.9866814017295837
      ],
      "min": [
        0.00840754434466362,
        0.029558837413787842
      ],
      "type": "VEC2"
    },
    {
      "bufferView": 3,
      "byteOffset": 0,
      "componentType": 5126,
      "normalized": false,
      "count": 4454,
      "max": [
        0.992699146270752,
        0.9866814017295837
      ],
      "min": [
        0.00840754434466362,
        0.029558837413787842
      ],
      "type": "VEC2"
    },
    {
      "bufferView": 4,
      "byteOffset": 0,
      "componentType": 5123,
      "normalized": false,
      "count": 21066,
      "max": [
        4453
      ],
      "min": [
        0
      ],
      "type": "SCALAR"
    }
  ],
  "scene": 0,
  "scenes": [
    {
      "nodes": [
        0,
        1,
        7
      ],
      "name": "Scene"
    }
  ],
  "nodes": [
    {
      "name": "Light",
      "matrix": [
        -0.2908647358417511,
        -0.055189065635204315,
        -0.9551712274551392,
        0,
        0.566393256187439,
        0.7946722507476807,
        -0.21839122474193573,
        0,
        0.7711008787155151,
        -0.6045247912406921,
        -0.19988344609737396,
        0,
        4.076245307922363,
        5.903861999511719,
        -1.0054539442062378,
        1
      ]
    },
    {
      "name": "Camera",
      "matrix": [
        0.6859206557273865,
        -4.011331711240018e-9,
        -0.7276763319969177,
        0,
        0.6515582203865051,
        0.44527140259742737,
        0.6141703724861145,
        0,
        0.32401347160339355,
        -0.8953956365585327,
        0.3054208755493164,
        0,
        7.358891487121582,
        4.958309173583984,
        6.925790786743164,
        1
      ]
    },
    {
      "name": "Coffee Mug_White_Coffee Mug_White_0",
      "mesh": 0
    },
    {
      "name": "Coffee Mug_White",
      "children": [
        2
      ]
    },
    {
      "name": "RootNode",
      "children": [
        3
      ]
    },
    {
      "name": "c20599c5186242c59cde04edba4960f1.fbx",
      "children": [
        4
      ],
      "matrix": [
        1,
        0,
        0,
        0,
        0,
        -1,
        0,
        0,
        0,
        0,
        -1,
        0,
        0,
        0,
        0,
        1
      ]
    },
    {
      "name": "RootNode (model correction matrix)",
      "children": [
        5
      ],
      "matrix": [
        -1,
        8.672856095084378e-33,
        0,
        0,
        -8.672856095084378e-33,
        -1,
        0,
        0,
        0,
        0,
        1,
        0,
        0,
        -9.500070571899414,
        0,
        1
      ]
    },
    {
      "name": "RootNode (gltf orientation matrix)",
      "children": [
        6
      ]
    }
  ],
  "meshes": [
    {
      "primitives": [
        {
          "attributes": {
            "POSITION": 0,
            "NORMAL": 1,
            "TEXCOORD_0": 2,
            "TEXCOORD_1": 3
          },
          "targets": [],
          "material": 0,
          "mode": 4,
          "indices": 4
        }
      ]
    }
  ],
  "materials": [
    {
      "pbrMetallicRoughness": {
        "baseColorFactor": [
          1,
          1,
          1,
          1
        ],
        "metallicFactor": 1,
        "roughnessFactor": 1
      },
      "emissiveFactor": [
        0,
        0,
        0
      ],
      "alphaMode": "OPAQUE",
      "doubleSided": true
    }
  ]
}